<?xml version="1.0" standalone="no"?>
<!DOCTYPE svg PUBLIC "-//W3C//DTD SVG 20010904//EN"
 "http://www.w3.org/TR/2001/REC-SVG-20010904/DTD/svg10.dtd">
<svg version="1.0" xmlns="http://www.w3.org/2000/svg"
 width="260.000000pt" height="260.000000pt" viewBox="0 0 260.000000 260.000000"
 preserveAspectRatio="xMidYMid meet">
<metadata>
Created by potrace 1.11, written by Peter Selinger 2001-2013
</metadata>
<g transform="translate(0.000000,260.000000) scale(0.100000,-0.100000)"
fill="#000000" stroke="none">
<path d="M1117 2291 l-137 -279 24 -54 c13 -29 47 -102 76 -163 29 -60 66
-139 82 -175 31 -67 45 -97 147 -314 34 -70 61 -130 61 -131 0 -2 25 -57 56
-122 107 -226 214 -454 379 -808 58 -126 110 -233 114 -238 4 -4 145 -6 314
-5 l307 3 -293 590 c-162 325 -448 902 -637 1283 -189 380 -347 692 -350 692
-3 0 -67 -126 -143 -279z"/>
<path d="M225 414 c-30 -63 -55 -117 -55 -119 0 -3 -117 -251 -131 -277 -9
-17 7 -18 281 -18 160 0 290 4 290 9 0 5 28 67 61 137 34 71 71 152 84 179 13
28 39 85 59 128 l35 77 -284 0 -285 0 -55 -116z"/>
</g>
</svg>
