<?xml version="1.0" standalone="no"?>
<!DOCTYPE svg PUBLIC "-//W3C//DTD SVG 20010904//EN"
 "http://www.w3.org/TR/2001/REC-SVG-20010904/DTD/svg10.dtd">
<svg version="1.0" xmlns="http://www.w3.org/2000/svg"
 width="512.000000pt" height="512.000000pt" viewBox="0 0 512.000000 512.000000"
 preserveAspectRatio="xMidYMid meet">
<metadata>
Created by potrace 1.11, written by Peter Selinger 2001-2013
</metadata>
<g transform="translate(0.000000,512.000000) scale(0.100000,-0.100000)"
fill="#000000" stroke="none">
<path d="M0 2555 l0 -2555 2560 0 2560 0 0 2555 0 2555 -2560 0 -2560 0 0
-2555z m2611 1595 c19 -5 47 -22 61 -37 14 -16 357 -689 763 -1498 653 -1300
738 -1475 739 -1516 0 -58 -29 -108 -74 -131 -33 -17 -127 -18 -1535 -18
-1408 0 -1502 1 -1535 18 -45 23 -74 73 -74 131 1 41 87 217 742 1522 408 811
753 1485 766 1498 39 36 89 47 147 31z"/>
</g>
</svg>
